<svg xmlns="http://www.w3.org/2000/svg" viewBox="0 0 192.67 54.65"><g data-name="ETH zurich logo"><g data-name="ETH Zurich short"><path d="M118.45 34.56c-1.11 5.5-5.35 5.78-6.2 5.78-2.4 0-3.83-1.38-3.83-3.7a11.05 11.05 0 0 1 .22-2l2.62-13.09h-3.11L105.49 35v.19a9.31 9.31 0 0 0-.22 1.93 5.64 5.64 0 0 0 5.89 6 8 8 0 0 0 6.18-2.52l-.41 2.21v.05H120l4.23-21.26H121l-2.59 13ZM139.61 21.27a7.29 7.29 0 0 0-5.86 2.7l.48-2.39h-3.06L127 42.79v.05h3.11l2.59-13c.66-3.35 3.23-5.77 6.11-5.77a3.53 3.53 0 0 1 3 1.49l2.52-2.25a5.78 5.78 0 0 0-4.64-2ZM88.29 24.23l-.01.05h10.59l-14.1 15.95h-.01l-.53 2.61h15.03l.54-2.76H88.56l14.15-15.94v-.01l.53-2.6H88.82l-.53 2.7zM144.67 42.79l-.01.05h3.11L152 21.53h-3.05l-4.28 21.26zM186.76 21.27a7.91 7.91 0 0 0-6.08 2.4l2.41-11.87H180l-6.23 31h3.1l2.59-13c1.11-5.49 5.4-5.77 6.24-5.77a3.44 3.44 0 0 1 3.79 3.7 12.16 12.16 0 0 1-.21 2l-2.64 13.14h3.1l2.73-13.43a10.84 10.84 0 0 0 .22-2.11 5.65 5.65 0 0 0-5.91-6ZM166.18 21.27c-5.63 0-9.58 4-10.85 10.88a19.13 19.13 0 0 0-.3 3.28c0 4.73 2.87 7.67 7.49 7.67a9.85 9.85 0 0 0 7.09-3l-1.79-2.19a6.54 6.54 0 0 1-5.09 2.44c-2.2 0-4.56-1.31-4.56-5a16.39 16.39 0 0 1 .34-3.18 12.18 12.18 0 0 1 2.75-6.09 6.32 6.32 0 0 1 4.66-2 4.47 4.47 0 0 1 4.08 2.29v.05l2.28-1.93a6.92 6.92 0 0 0-6.15-3.16ZM150.1 15.68h3.11l.78-3.88h-3.1l-.79 3.88zM119.92 15.68h3.11l.77-3.88h-3.1l-.78 3.88zM111.64 15.68h3.11l.77-3.88h-3.1l-.78 3.88zM70.16 23.83h-6.98l2.45-12.03H6.26L.03 42.84H23.7l1.55-7.76H11.27l.85-4.27h13.97l1.41-6.98H13.52l.85-4.27h22.15l-4.68 23.28h9.71l4.67-23.28h8.15l-4.68 23.28h9.71l2.39-12.03h6.99l-2.4 12.03h9.7l6.24-31.04h-9.7l-2.46 12.03z"/></g></g></svg>
