<svg xmlns="http://www.w3.org/2000/svg" width="155" height="54.175" viewBox="0 0 155 54.175">
  <g id="SA23_Logo_Full_Color-Landscape" data-name="SA23 Logo Full Color-Landscape" transform="translate(-3.035 -2.532)">
    <g id="Group_18823" data-name="Group 18823" transform="translate(3.035 2.532)">
      <path id="Path_5326" data-name="Path 5326" d="M20.992,19.244c9.572-7.115,20.436-10.694,26.329-9.2C39.128,1.379,25.224-.084,14.573,7.2,3.994,14.415.259,27.736,5.172,38.487c.639-5.141,6.291-12.156,15.82-19.243" transform="translate(-3.035 -2.532)" fill="#ff8261"/>
      <path id="Path_5327" data-name="Path 5327" d="M20.77,17.781C9.224,26.359,3.359,34.937,6.029,39.268a2.933,2.933,0,0,1-.213-.483c.043.071.057.156.114.241,2.585,3.792,12.895,1.349,23.716-5.4-7.569,3.891-14.2,4.9-16.118,2.059C11.084,32.082,17.162,23.6,27.1,16.759c8.436-5.808,16.928-8.549,20.8-7.058a3.654,3.654,0,0,1,.753.724h0a2.031,2.031,0,0,0-.156-.213C45.3,6.42,32.827,8.82,20.755,17.781" transform="translate(-2.045 -0.033)" fill="#ff8261"/>
      <path id="Path_5328" data-name="Path 5328" d="M8.116,42.62c3.067,3.849,15.55,1.434,27.678-7.569,11.574-8.592,17.439-17.2,14.727-21.515a4.961,4.961,0,0,1,.213.483,2.316,2.316,0,0,0-.128-.27c-2.585-3.792-12.895-1.349-23.716,5.4,7.583-3.891,14.2-4.9,16.118-2.059,2.457,3.621-3.621,12.1-13.576,18.945-8.45,5.808-16.942,8.563-20.819,7.058a3.641,3.641,0,0,1-.753-.724h0c.071.1.156.2.227.3h.028Z" transform="translate(-1.008 1.429)" fill="#ff8261"/>
      <path id="Path_5329" data-name="Path 5329" d="M51.646,15.4c-.639,5.141-6.291,12.156-15.82,19.243C26.1,41.871,15.433,45.436,9.61,43.93c8.208,8.535,22.012,9.927,32.606,2.7,10.552-7.2,14.3-20.493,9.43-31.214" transform="translate(-0.273 2.874)" fill="#ff8261"/>
    </g>
    <g id="Group_18829" data-name="Group 18829" transform="translate(63.327 2.543)">
      <g id="Group_18824" data-name="Group 18824">
        <path id="Path_5330" data-name="Path 5330" d="M48.131,12a2.77,2.77,0,0,0,.5,1.349,2.922,2.922,0,0,0,2.343.809,4.983,4.983,0,0,0,1.6-.213,1.531,1.531,0,0,0,1.179-1.52,1.128,1.128,0,0,0-.582-1.008,6.168,6.168,0,0,0-1.832-.611l-1.42-.312a8.741,8.741,0,0,1-2.883-1.008A3.232,3.232,0,0,1,45.7,6.644,3.752,3.752,0,0,1,47.01,3.7,5.539,5.539,0,0,1,50.83,2.54a5.846,5.846,0,0,1,3.593,1.108,3.942,3.942,0,0,1,1.562,3.2H53.343a1.869,1.869,0,0,0-1.065-1.69,3.715,3.715,0,0,0-1.633-.327,3.1,3.1,0,0,0-1.733.426,1.368,1.368,0,0,0-.653,1.193A1.122,1.122,0,0,0,48.9,7.5a7.3,7.3,0,0,0,1.747.54l2.3.54a5.9,5.9,0,0,1,2.272.951A3.242,3.242,0,0,1,56.4,12.211a3.851,3.851,0,0,1-1.392,3A5.866,5.866,0,0,1,51.071,16.4a6.541,6.541,0,0,1-4.09-1.179A3.881,3.881,0,0,1,45.49,12h2.627Z" transform="translate(-45.49 -2.54)" fill="#ff8261"/>
        <path id="Path_5331" data-name="Path 5331" d="M57.187,15.95H54.46V2.8h2.727Z" transform="translate(-41.721 -2.431)" fill="#ff8261"/>
        <path id="Path_5332" data-name="Path 5332" d="M67.22,7.005A2.615,2.615,0,0,0,65.7,5.116a3.7,3.7,0,0,0-1.505-.3,3.281,3.281,0,0,0-2.613,1.193,5.439,5.439,0,0,0-1.022,3.607,4.461,4.461,0,0,0,1.108,3.423,3.655,3.655,0,0,0,2.514,1.008,3.282,3.282,0,0,0,2.272-.8,3.406,3.406,0,0,0,1.093-2.073H64.507v-2.2h5.482v7.058H68.171L67.9,14.39a6.424,6.424,0,0,1-1.42,1.321,5.065,5.065,0,0,1-2.67.667,5.627,5.627,0,0,1-4.289-1.8A6.86,6.86,0,0,1,57.79,9.6a7.288,7.288,0,0,1,1.761-5.112,6.745,6.745,0,0,1,8.677-.653,4.791,4.791,0,0,1,1.747,3.167h-2.7Z" transform="translate(-40.322 -2.532)" fill="#ff8261"/>
        <path id="Path_5333" data-name="Path 5333" d="M77.13,7.005a2.615,2.615,0,0,0-1.52-1.889,3.7,3.7,0,0,0-1.505-.3,3.281,3.281,0,0,0-2.613,1.193,5.439,5.439,0,0,0-1.022,3.607,4.461,4.461,0,0,0,1.108,3.423,3.655,3.655,0,0,0,2.514,1.008,3.282,3.282,0,0,0,2.272-.8,3.406,3.406,0,0,0,1.093-2.073H74.417v-2.2H79.9v7.058H78.081l-.27-1.647a6.424,6.424,0,0,1-1.42,1.321,5.065,5.065,0,0,1-2.67.667,5.627,5.627,0,0,1-4.289-1.8A6.86,6.86,0,0,1,67.7,9.6a7.288,7.288,0,0,1,1.761-5.112,6.745,6.745,0,0,1,8.677-.653,4.791,4.791,0,0,1,1.747,3.167h-2.7Z" transform="translate(-36.159 -2.532)" fill="#ff8261"/>
        <path id="Path_5334" data-name="Path 5334" d="M86.44,3.141a3.292,3.292,0,0,1,1.236.923,3.972,3.972,0,0,1,.667,1.108,3.783,3.783,0,0,1,.241,1.378A4,4,0,0,1,88.116,8.4a2.585,2.585,0,0,1-1.562,1.278,2.485,2.485,0,0,1,1.292,1.037,4.309,4.309,0,0,1,.383,2.059v.88a7.3,7.3,0,0,0,.071,1.221,1.109,1.109,0,0,0,.511.753v.327H85.773c-.085-.3-.142-.525-.185-.71a6.042,6.042,0,0,1-.114-1.136V12.883a2.54,2.54,0,0,0-.454-1.676,2.188,2.188,0,0,0-1.562-.426H80.774v5.155H78.09V2.8h6.291a5.547,5.547,0,0,1,2.073.341ZM80.76,5.086V8.623h2.954a3.186,3.186,0,0,0,1.321-.213,1.47,1.47,0,0,0,.781-1.477,1.665,1.665,0,0,0-.753-1.6A2.715,2.715,0,0,0,83.8,5.1H80.76Z" transform="translate(-31.794 -2.431)" fill="#ff8261"/>
        <path id="Path_5335" data-name="Path 5335" d="M91.316,2.8h3.11l4.658,13.15H96.1l-.866-2.7H90.393l-.895,2.7H86.63l4.7-13.15Zm-.185,8.18H94.5L92.836,5.811l-1.7,5.169Z" transform="translate(-28.206 -2.431)" fill="#ff8261"/>
        <path id="Path_5336" data-name="Path 5336" d="M105.252,10.256a5.035,5.035,0,0,1-3.295.966H99.217V15.95H96.49V2.8h5.652a4.512,4.512,0,0,1,3.11,1.022,4.012,4.012,0,0,1,1.165,3.153,4.1,4.1,0,0,1-1.15,3.295Zm-2.1-4.743a2.247,2.247,0,0,0-1.463-.44H99.217V8.949h2.471a2.129,2.129,0,0,0,1.463-.469,1.9,1.9,0,0,0,.525-1.505A1.764,1.764,0,0,0,103.15,5.512Z" transform="translate(-24.063 -2.431)" fill="#ff8261"/>
        <path id="Path_5337" data-name="Path 5337" d="M104.72,15.95V2.8h2.727V7.813h5.112V2.8h2.727V15.95h-2.727V10.085h-5.112V15.95H104.72Z" transform="translate(-20.606 -2.431)" fill="#ff8261"/>
      </g>
      <g id="Group_18827" data-name="Group 18827" transform="translate(0.028 18.021)">
        <g id="Group_18825" data-name="Group 18825" transform="translate(52.19 0.554)">
          <path id="Path_5338" data-name="Path 5338" d="M82.913,26.9a7.661,7.661,0,0,1,2.769-2.954A19.435,19.435,0,0,0,88.125,22a2.885,2.885,0,0,0,.852-2,2.19,2.19,0,0,0-.483-1.463,2.005,2.005,0,0,0-3.11.355,4.835,4.835,0,0,0-.312,1.7H82.416a6.7,6.7,0,0,1,.639-2.869,4.006,4.006,0,0,1,3.891-2.088,4.988,4.988,0,0,1,3.522,1.221A4.268,4.268,0,0,1,91.775,20.1a4.374,4.374,0,0,1-.923,2.741,9.182,9.182,0,0,1-1.988,1.775L87.77,25.4c-.682.483-1.15.838-1.406,1.051a2.951,2.951,0,0,0-.639.753H91.8v2.414H82.26a6.7,6.7,0,0,1,.639-2.741Z" transform="translate(-82.26 -15.612)" fill="#ff8261"/>
          <path id="Path_5339" data-name="Path 5339" d="M98.6,17.495A10.9,10.9,0,0,1,99.67,22.82,10.806,10.806,0,0,1,98.6,28.131a4.679,4.679,0,0,1-7.47,0A10.844,10.844,0,0,1,90.07,22.82a10.9,10.9,0,0,1,1.065-5.325,4.658,4.658,0,0,1,7.47,0Zm-5.34,9a1.655,1.655,0,0,0,3.224,0,13.49,13.49,0,0,0,.383-3.678,13.558,13.558,0,0,0-.383-3.721,1.545,1.545,0,0,0-1.6-1.207A1.571,1.571,0,0,0,93.265,19.1a12.662,12.662,0,0,0-.4,3.721,12.529,12.529,0,0,0,.4,3.678Z" transform="translate(-78.979 -15.62)" fill="#ff8261"/>
          <path id="Path_5340" data-name="Path 5340" d="M98.4,26.9a7.661,7.661,0,0,1,2.769-2.954A19.435,19.435,0,0,0,103.615,22a2.885,2.885,0,0,0,.852-2,2.19,2.19,0,0,0-.483-1.463,2.005,2.005,0,0,0-3.11.355,4.835,4.835,0,0,0-.312,1.7H97.906a6.7,6.7,0,0,1,.639-2.869,4.006,4.006,0,0,1,3.891-2.088,4.988,4.988,0,0,1,3.522,1.221,4.268,4.268,0,0,1,1.307,3.238,4.374,4.374,0,0,1-.923,2.741,9.182,9.182,0,0,1-1.988,1.775l-1.093.781c-.682.483-1.15.838-1.406,1.051a2.951,2.951,0,0,0-.639.753h6.078v2.414H97.75a6.7,6.7,0,0,1,.639-2.741Z" transform="translate(-75.752 -15.612)" fill="#ff8261"/>
          <path id="Path_5341" data-name="Path 5341" d="M108.066,25.364a3.014,3.014,0,0,0,.27,1.378,1.845,1.845,0,0,0,1.818,1.008,2,2,0,0,0,1.406-.554,2.057,2.057,0,0,0,.6-1.591,1.786,1.786,0,0,0-1.108-1.832,5.684,5.684,0,0,0-1.988-.256v-1.96a5.034,5.034,0,0,0,1.86-.256,1.594,1.594,0,0,0,.909-1.633,1.807,1.807,0,0,0-.469-1.292,1.712,1.712,0,0,0-1.307-.5,1.642,1.642,0,0,0-1.42.611,2.636,2.636,0,0,0-.44,1.647h-2.556a6.937,6.937,0,0,1,.355-1.974,4.6,4.6,0,0,1,1.051-1.505,3.585,3.585,0,0,1,1.278-.753,5.605,5.605,0,0,1,1.818-.256,4.8,4.8,0,0,1,3.224,1.037,3.457,3.457,0,0,1,1.221,2.769,3.076,3.076,0,0,1-.724,2.073,2.468,2.468,0,0,1-.966.724,1.97,1.97,0,0,1,1.079.639,3.465,3.465,0,0,1,1.051,2.656,4.5,4.5,0,0,1-1.221,3.11,4.635,4.635,0,0,1-3.621,1.335c-1.974,0-3.337-.639-4.1-1.931a5.74,5.74,0,0,1-.667-2.684h2.684Z" transform="translate(-72.534 -15.607)" fill="#ff8261"/>
        </g>
        <g id="Group_18826" data-name="Group 18826">
          <path id="Path_5342" data-name="Path 5342" d="M50.566,15.53h3.352L58.93,29.689H55.721l-.937-2.911H49.572l-.966,2.911h-3.1L50.566,15.53Zm-.2,8.8h3.621L52.2,18.768Z" transform="translate(-45.51 -15.104)" fill="#ff8261"/>
          <path id="Path_5343" data-name="Path 5343" d="M58.3,25.441a2.742,2.742,0,0,0,.54,1.449,3.166,3.166,0,0,0,2.528.88,5.334,5.334,0,0,0,1.733-.227A1.654,1.654,0,0,0,64.36,25.9a1.206,1.206,0,0,0-.625-1.079,6.69,6.69,0,0,0-1.96-.667l-1.534-.341a9.691,9.691,0,0,1-3.11-1.079A3.464,3.464,0,0,1,55.7,19.661,4.1,4.1,0,0,1,57.1,16.494a5.98,5.98,0,0,1,4.118-1.264,6.283,6.283,0,0,1,3.863,1.193,4.253,4.253,0,0,1,1.676,3.451H63.92a2.052,2.052,0,0,0-1.136-1.818,3.853,3.853,0,0,0-1.761-.355,3.454,3.454,0,0,0-1.875.454,1.461,1.461,0,0,0-.7,1.292,1.209,1.209,0,0,0,.7,1.136,7.926,7.926,0,0,0,1.875.582l2.485.582a6.271,6.271,0,0,1,2.443,1.022,3.49,3.49,0,0,1,1.264,2.9,4.082,4.082,0,0,1-1.505,3.224,6.33,6.33,0,0,1-4.232,1.278,7.05,7.05,0,0,1-4.4-1.264,4.192,4.192,0,0,1-1.6-3.479H58.3Z" transform="translate(-41.325 -15.23)" fill="#ff8261"/>
          <path id="Path_5344" data-name="Path 5344" d="M68.05,29.689H65.11V15.53h2.94Z" transform="translate(-37.275 -15.104)" fill="#ff8261"/>
          <path id="Path_5345" data-name="Path 5345" d="M73.376,15.53h3.352L81.74,29.689h-3.21l-.937-2.911H72.382l-.966,2.911h-3.1L73.376,15.53Zm-.2,8.8H76.8l-1.789-5.567Z" transform="translate(-35.927 -15.104)" fill="#ff8261"/>
        </g>
      </g>
      <g id="Group_18828" data-name="Group 18828" transform="translate(0.042 36.1)">
        <path id="Path_5346" data-name="Path 5346" d="M47.679,39.974a4.822,4.822,0,0,0,.667,2.372q1.108,1.7,3.92,1.7a6.832,6.832,0,0,0,2.286-.369,2.63,2.63,0,0,0,2-2.585,2.244,2.244,0,0,0-.852-1.988A8.36,8.36,0,0,0,53.018,38.1l-2.244-.525a9.793,9.793,0,0,1-3.11-1.136,3.624,3.624,0,0,1-1.576-3.209,5.021,5.021,0,0,1,1.548-3.792,6.155,6.155,0,0,1,4.4-1.477A7.522,7.522,0,0,1,56.5,29.267a4.753,4.753,0,0,1,1.832,4.161H56.143a4.572,4.572,0,0,0-.71-2.116,4.068,4.068,0,0,0-3.451-1.335,3.848,3.848,0,0,0-2.826.866,2.779,2.779,0,0,0-.866,2,1.985,1.985,0,0,0,1.022,1.846,14.629,14.629,0,0,0,3.011.937l2.329.554a7.188,7.188,0,0,1,2.6,1.079,4.1,4.1,0,0,1,1.576,3.479A4.364,4.364,0,0,1,56.81,44.8a8.935,8.935,0,0,1-4.686,1.221,6.85,6.85,0,0,1-4.871-1.633A5.585,5.585,0,0,1,45.52,40h2.187Z" transform="translate(-45.52 -27.96)" fill="#ff8261"/>
        <path id="Path_5347" data-name="Path 5347" d="M55.32,28.26h2.7L62.946,36.5l4.928-8.237H70.6l-6.49,10.225v6.9H61.8v-6.9Z" transform="translate(-41.402 -27.834)" fill="#ff8261"/>
        <path id="Path_5348" data-name="Path 5348" d="M67.37,28.26h6.845a6.426,6.426,0,0,1,5.411,2.514,9.361,9.361,0,0,1,1.718,5.794A11.756,11.756,0,0,1,80.336,41.5,6.244,6.244,0,0,1,74.2,45.387H67.384V28.26ZM73.761,43.4a6.364,6.364,0,0,0,1.889-.241,4.091,4.091,0,0,0,2.159-1.747,7.2,7.2,0,0,0,.966-2.656,10.385,10.385,0,0,0,.17-1.789,8.532,8.532,0,0,0-1.236-4.942,4.516,4.516,0,0,0-3.976-1.761H69.713v13.15h4.047Z" transform="translate(-36.34 -27.834)" fill="#ff8261"/>
        <path id="Path_5349" data-name="Path 5349" d="M79.174,28.26H81.9l8.535,13.832V28.26h2.215V45.387H90.038L81.375,31.569V45.387H79.16V28.26Z" transform="translate(-31.387 -27.834)" fill="#ff8261"/>
        <path id="Path_5350" data-name="Path 5350" d="M91.19,28.26h12.426v2.1H93.448v5.2h9.4v1.988h-9.4v5.808h10.339V45.4H91.19V28.274Z" transform="translate(-26.332 -27.834)" fill="#ff8261"/>
        <path id="Path_5351" data-name="Path 5351" d="M101.19,28.26h2.7l4.928,8.237,4.928-8.237h2.727l-6.49,10.225v6.9h-2.315v-6.9L101.19,28.26Z" transform="translate(-22.131 -27.834)" fill="#ff8261"/>
      </g>
    </g>
  </g>
</svg>
